<svg width="1524" height="1524" viewBox="0 0 1524 1524" fill="none" xmlns="http://www.w3.org/2000/svg">
<rect x="761.188" y="423.604" width="350.719" height="328.226" transform="rotate(60 761.188 423.604)" fill="black" stroke="black"/>
<rect x="650.655" y="635.07" width="330.114" height="347.448" transform="rotate(30 650.655 635.07)" fill="black" stroke="black"/>
<rect x="824.365" y="588.034" width="347.615" height="347.615" transform="rotate(90 824.365 588.034)" fill="black" stroke="black"/>
<rect x="1047.25" y="588.034" width="347.615" height="347.615" transform="rotate(90 1047.25 588.034)" fill="black" stroke="black"/>
<rect x="762.792" y="423.59" width="328.254" height="350.735" transform="rotate(30 762.792 423.59)" fill="black" stroke="black"/>
<rect x="873.338" y="635.055" width="347.464" height="330.143" transform="rotate(60 873.338 635.055)" fill="black" stroke="black"/>
<path d="M303.774 156.212C478.433 218.676 708.824 366.427 756.738 426.484M303.774 156.212C478.433 218.676 708.824 366.427 756.738 426.484" stroke="black" stroke-width="17"/>
<path d="M1512.57 774.478C1362.54 860.088 1118.93 933.78 1047.75 931.498M1512.57 774.478C1362.54 860.088 1118.93 933.78 1047.75 931.498" stroke="black" stroke-width="17"/>
<path d="M1174.92 1385.58C1015.13 1317.06 808.097 1159.92 766.717 1097.28M1174.92 1385.58C1015.13 1317.06 808.097 1159.92 766.717 1097.28" stroke="black" stroke-width="17"/>
<path d="M15.241 781.047C161.517 684.576 403.973 594.502 476.613 592.455" stroke="black" stroke-width="17"/>
<path d="M382.903 1409.7C379.94 1243.53 439.903 999.294 481.036 937.263M382.903 1409.7C379.94 1243.53 439.903 999.294 481.036 937.263" stroke="black" stroke-width="17"/>
<path d="M1093.47 83.8228C1110.22 260.425 1075.64 519.93 1043.01 585.815" stroke="black" stroke-width="17"/>
<circle cx="762" cy="762" r="754.5" stroke="black" stroke-width="15"/>
</svg>
