<svg width="1524" height="1524" viewBox="0 0 1524 1524" fill="none" xmlns="http://www.w3.org/2000/svg">
<rect x="761.371" y="422.921" width="351.719" height="329.226" transform="rotate(60 761.371 422.921)" fill="black"/>
<rect x="650.472" y="634.387" width="331.114" height="348.448" transform="rotate(30 650.472 634.387)" fill="black"/>
<rect x="824.865" y="587.534" width="348.615" height="348.615" transform="rotate(90 824.865 587.534)" fill="black"/>
<rect x="1047.75" y="587.534" width="348.615" height="348.615" transform="rotate(90 1047.75 587.534)" fill="black"/>
<rect x="762.609" y="422.907" width="329.254" height="351.735" transform="rotate(30 762.609 422.907)" fill="black"/>
<rect x="873.521" y="634.372" width="348.464" height="331.143" transform="rotate(60 873.521 634.372)" fill="black"/>
<path d="M303.774 156.212C478.433 218.676 708.824 366.427 756.738 426.484M303.774 156.212C478.433 218.676 708.824 366.427 756.738 426.484" stroke="black" stroke-width="17"/>
<path d="M1512.57 774.478C1362.54 860.088 1118.93 933.78 1047.75 931.498M1512.57 774.478C1362.54 860.088 1118.93 933.78 1047.75 931.498" stroke="black" stroke-width="17"/>
<path d="M1174.92 1385.58C1015.13 1317.06 808.097 1159.92 766.717 1097.28M1174.92 1385.58C1015.13 1317.06 808.097 1159.92 766.717 1097.28" stroke="black" stroke-width="17"/>
<path d="M15.241 781.047C161.517 684.576 403.973 594.502 476.613 592.455" stroke="black" stroke-width="17"/>
<path d="M382.903 1409.7C379.94 1243.53 439.903 999.294 481.036 937.263M382.903 1409.7C379.94 1243.53 439.903 999.294 481.036 937.263" stroke="black" stroke-width="17"/>
<path d="M1093.47 83.8228C1110.22 260.425 1075.64 519.93 1043.01 585.815" stroke="black" stroke-width="17"/>
<circle cx="762" cy="762" r="754.5" stroke="black" stroke-width="15"/>
</svg>
